<svg xmlns="http://www.w3.org/2000/svg" viewBox="0 0 960 600"><title>Praia</title><rect x="0" y="0" width="960" height="600" rx="0" fill="#a0dce6"/><g transform="translate(190 74) scale(0.8)" fill="#f5fbf6" opacity=".9"><ellipse cx="0" cy="0" rx="67" ry="20"/><ellipse cx="-22" cy="-14" rx="30" ry="27"/><ellipse cx="20" cy="-21" rx="34" ry="30"/></g><g transform="translate(780 104) scale(0.6)" fill="#f5fbf6" opacity=".9"><ellipse cx="0" cy="0" rx="67" ry="20"/><ellipse cx="-22" cy="-14" rx="30" ry="27"/><ellipse cx="20" cy="-21" rx="34" ry="30"/></g><rect x="0" y="210" width="960" height="135" rx="0" fill="#56b4c6"/><path d="M 0 307 Q 210 267 405 310 T 960 296 L 960 600 L 0 600 Z" fill="#edcf96"/><path d="M 0 307 Q 210 267 405 310 T 960 296" fill="none" stroke="#f7f6db" stroke-width="13" stroke-linejoin="round"/><path d="M 20 248 Q 160 233 290 248 M 420 264 Q 560 245 740 260 M 715 226 L 912 226" fill="none" stroke="#b9e8df" stroke-width="5" stroke-linejoin="round"/><path d="M 61 454 Q 105 295 79 205" fill="none" stroke="#a88656" stroke-width="19" stroke-linejoin="round"/><path d="M 80 217 Q -35 166 -10 261 Q 45 218 80 217 Z" fill="#4a9274"/><path d="M 80 217 Q 141 129 186 205 Q 127 186 80 217 Z" fill="#4a9274"/><path d="M 80 217 Q 167 203 176 282 Q 119 242 80 217 Z" fill="#4a9274"/><ellipse cx="856" cy="526" rx="50" ry="11" fill="#d6b982"/><path d="M 842 517 l 13 -20 l 14 22 Z" fill="#f4ecce" stroke="#d6b982" stroke-width="2" stroke-linejoin="round"/></svg>
